<?xml version="1.0" encoding="UTF-8"?>
<svg version="1.1" xmlns="http://www.w3.org/2000/svg" width="32" height="32">
<path d="M0 0 C1.98 0 3.96 0 6 0 C6.268125 0.78375 6.53625 1.5675 6.8125 2.375 C7.84814432 5.28114923 7.84814432 5.28114923 11 7 C11.3721042 8.32303717 11.70630173 9.65737935 12 11 C14.5654594 13.5654594 16.47686668 13.54046087 20 14 C19.4140625 20.15234375 19.4140625 20.15234375 19 22 C18.34 22.33 17.68 22.66 17 23 C16.896875 23.804375 16.79375 24.60875 16.6875 25.4375 C16.3471875 26.7059375 16.3471875 26.7059375 16 28 C13.625 29.25 13.625 29.25 11 30 C10.01 30.33 9.02 30.66 8 31 C1.85689008 31.61907309 -2.52469192 30.79352453 -8 28 C-8.66 27.67 -9.32 27.34 -10 27 C-10.10823773 24.75106046 -10.18569645 22.50062425 -10.25 20.25 C-10.29640625 18.99703125 -10.3428125 17.7440625 -10.390625 16.453125 C-9.93591257 12.43346716 -9.05412961 11.50042291 -6 9 C-5.67 8.319375 -5.34 7.63875 -5 6.9375 C-3.76444496 4.54361211 -2.14555243 3.57340511 0 2 C0 1.34 0 0.68 0 0 Z " fill="#FAFCFA" transform="translate(12,0)"/>
<path d="M0 0 C0.66 0 1.32 0 2 0 C3.3540932 1.98600337 4.68457624 3.98817543 6 6 C6.7425 6.7425 7.485 7.485 8.25 8.25 C9.11625 9.11625 9.11625 9.11625 10 10 C10 12 10 12 8.5625 13.5625 C5.8679585 15.07407206 4.45993707 15.23075349 1.4375 15.4375 C-2.2289886 15.63464849 -2.2289886 15.63464849 -4.9375 18.0625 C-5.288125 18.701875 -5.63875 19.34125 -6 20 C-6.66 20 -7.32 20 -8 20 C-9.04263714 12.04989177 -6.75505348 8.37353761 -1.9453125 2.08984375 C-1.30335937 1.40019531 -0.66140625 0.71054688 0 0 Z " fill="#0E76B0" transform="translate(14,4)"/>
<path d="M0 0 C0.66 0.33 1.32 0.66 2 1 C-0.73922337 9.73646242 -0.73922337 9.73646242 -5 12 C-8.55353929 13.1845131 -11.27013478 13.26641894 -15 13 C-16.9375 11.5 -16.9375 11.5 -18 10 C-14.78991597 5.18487395 -14.78991597 5.18487395 -11.0625 4.3125 C-10.051875 4.209375 -9.04125 4.10625 -8 4 C-4.92916728 2.92877928 -2.72668672 1.81779115 0 0 Z " fill="#86BA44" transform="translate(26,16)"/>
<path d="M0 0 C0.94875 0.04125 1.8975 0.0825 2.875 0.125 C1.885 0.62 1.885 0.62 0.875 1.125 C0.606875 1.66125 0.33875 2.1975 0.0625 2.75 C-1.02679458 4.92858916 -2.18320134 6.48165859 -3.6875 8.375 C-6.53440547 12.23506889 -6.87569853 15.38827205 -7.125 20.125 C-9.93827687 16.94477397 -11.03595894 14.39897087 -11.125 10.125 C-9.3125 8 -9.3125 8 -7.125 6.125 C-6.42751417 4.80752676 -5.75540043 3.47585807 -5.125 2.125 C-3.125 0.125 -3.125 0.125 0 0 Z " fill="#EAF2F8" transform="translate(13.125,2.875)"/>
<path d="M0 0 C-1.15173355 2.46800047 -2.04783565 4.04783565 -4 6 C-3.01 6.66 -2.02 7.32 -1 8 C-7.52307692 8.36923077 -7.52307692 8.36923077 -9.9375 6.5 C-10.4634375 5.7575 -10.4634375 5.7575 -11 5 C-6.05136986 -1.43321918 -6.05136986 -1.43321918 0 0 Z " fill="#DAEAC7" transform="translate(19,21)"/>
<path d="M0 0 C0.66 0 1.32 0 2 0 C1 3 1 3 -1.1875 4.125 C-4 5 -4 5 -7.0625 5.375 C-10.53374268 6.11356227 -11.75500627 7.32327671 -14 10 C-14.66 9.34 -15.32 8.68 -16 8 C-13.85537064 5.30191791 -12.19977705 3.25650406 -8.734375 2.515625 C-7.15518943 2.38317718 -5.57220399 2.2888603 -3.98828125 2.23828125 C-1.76794256 2.17990482 -1.76794256 2.17990482 0 0 Z " fill="#E5F0ED" transform="translate(22,16)"/>
<path d="M0 0 C1.11375 0.1546875 1.11375 0.1546875 2.25 0.3125 C1.25233891 2.80665272 0.56383315 4.09990335 -1.6875 5.625 C-3.75 6.3125 -3.75 6.3125 -6.75 5.3125 C-3.42692308 0.38942308 -3.42692308 0.38942308 0 0 Z " fill="#8ABC4A" transform="translate(14.75,20.6875)"/>
<path d="M0 0 C0.66 0.33 1.32 0.66 2 1 C-0.11945459 4.17918189 -0.76431121 4.42837973 -4 6 C-5.68889872 7.3050581 -7.3603279 8.63360658 -9 10 C-7.63842622 4.70499087 -4.39656045 2.76254467 0 0 Z " fill="#8DBD4E" transform="translate(26,16)"/>
<path d="M0 0 C0.33 0 0.66 0 1 0 C1 3.3 1 6.6 1 10 C0.67 10 0.34 10 0 10 C0 6.7 0 3.4 0 0 Z " fill="#FFFFFF" transform="translate(1,15)"/>
<path d="M0 0 C1.65 0 3.3 0 5 0 C5 0.33 5 0.66 5 1 C3.35 1 1.7 1 0 1 C0 0.67 0 0.34 0 0 Z " fill="#FFFFFF" transform="translate(26,12)"/>
<path d="M0 0 C3 1 3 1 3 1 Z " fill="#FFFFFF" transform="translate(20,31)"/>
<path d="M0 0 C3 1 3 1 3 1 Z " fill="#FFFFFF" transform="translate(8,31)"/>
<path d="M0 0 C2 1 2 1 2 1 Z " fill="#FFFFFF" transform="translate(23,30)"/>
<path d="M0 0 C2 1 2 1 2 1 Z " fill="#FFFFFF" transform="translate(6,30)"/>
<path d="" fill="#FFFFFF" transform="translate(0,0)"/>
<path d="" fill="#FFFFFF" transform="translate(0,0)"/>
<path d="" fill="#FFFFFF" transform="translate(0,0)"/>
<path d="" fill="#FFFFFF" transform="translate(0,0)"/>
<path d="" fill="#FFFFFF" transform="translate(0,0)"/>
<path d="" fill="#FFFFFF" transform="translate(0,0)"/>
<path d="" fill="#FFFFFF" transform="translate(0,0)"/>
<path d="" fill="#FFFFFF" transform="translate(0,0)"/>
<path d="" fill="#FFFFFF" transform="translate(0,0)"/>
<path d="" fill="#FFFFFF" transform="translate(0,0)"/>
<path d="" fill="#FFFFFF" transform="translate(0,0)"/>
</svg>
